<svg width="1920" height="500" xmlns="http://www.w3.org/2000/svg" xmlns:svg="http://www.w3.org/2000/svg">
    <defs>
        <style>.cls-3{stroke-width:0;fill:#143235}</style>
    </defs>
    <g class="layer">
        <path d="m2,-2l1920,0l0,502l-1920,0l0,-502z" fill="#fff" id="svg_1"/>
        <path d="m1640,281l14,0a13,13 0 1 0 0,-26l-134,0l0,-7c0,-11 -2,-20 -7,-28c-4,-8 -10,-14 -18,-18s-17,-7 -27,-7s-20,3 -28,7c-7,4 -14,10 -18,18s-6,17 -6,28l0,40c0,11 2,20 6,28s11,14 18,18c8,4 17,7 28,7s19,-3 27,-7s14,-10 18,-18c5,-8 7,-17 7,-28l0,-7l46,0l0,58l27,0l0,-57l16,0l32,57l33,0l-34,-58zm-148,8c0,5 -1,9 -3,13s-5,7 -9,9c-3,2 -8,3 -12,3s-9,-1 -13,-3s-7,-5 -9,-9s-3,-8 -3,-13l0,-42c0,-5 1,-9 3,-13s5,-7 9,-9s8,-3 13,-3s9,1 12,3c4,2 7,5 9,9s3,8 3,13l0,42z" fill="#ff8700" id="svg_2" stroke-width="0"/>
        <path class="cls-3" d="m184,202c-6,-3 -14,-5 -23,-5l-57,0l0,142l27,0l0,-55l30,0c9,0 17,-2 23,-5c7,-4 12,-9 16,-16c4,-6 6,-14 6,-23s-2,-16 -6,-22c-4,-7 -9,-12 -16,-16zm-8,48a15,15 0 0 1 -14,8l-31,0l0,-35l31,0c3,0 6,0 8,2c3,1 5,3 6,6l2,9l-2,10zm105,-53l-55,142l29,0l8,-23l52,0l8,23l29,0l-54,-142l-17,0zm-9,94l17,-49l17,49l-34,0zm162,-6l21,0l0,3l-2,13c-2,4 -5,7 -9,9c-3,2 -8,3 -13,3s-9,-1 -12,-3c-4,-2 -7,-4 -9,-8c-2,-3 -3,-7 -3,-11l0,-42c0,-5 1,-10 3,-14s5,-7 8,-9c4,-2 8,-3 13,-3l9,2l8,5c3,2 4,5 5,8l29,0c-2,-9 -5,-16 -10,-23c-4,-6 -10,-11 -18,-14c-7,-4 -15,-6 -23,-6c-10,0 -20,3 -27,7c-8,4 -14,11 -19,19c-4,8 -6,17 -6,28l0,42c0,10 2,18 7,26c4,7 10,13 18,17c8,5 17,7 27,7s20,-3 28,-7c7,-4 14,-11 18,-19s6,-17 6,-28l0,-27l-49,0l0,25zm105,-88l-9,0l0,142l95,0l0,-26l-68,0l0,-32l57,0l0,-25l-57,0l0,-33l68,0l0,-26l-86,0zm211,5c-7,-3 -14,-5 -23,-5l-57,0l0,142l26,0l0,-55l31,0c9,0 16,-2 23,-5c7,-4 12,-9 16,-16c4,-6 5,-14 5,-23s-1,-16 -5,-22c-4,-7 -9,-12 -16,-16zm-8,48a15,15 0 0 1 -15,8l-31,0l0,-35l31,0c4,0 6,0 9,2l6,6l2,9l-2,10zm104,-53l-54,142l29,0l8,-23l52,0l8,23l29,0l-55,-142l-17,0zm-8,94l17,-49l17,49l-34,0zm203,-17c-4,-5 -9,-9 -16,-12a118,118 0 0 0 -26,-7l-14,-3c-4,-2 -7,-3 -9,-6c-3,-2 -4,-5 -4,-9l0,-1c0,-4 3,-8 7,-11c5,-3 11,-4 19,-4c6,0 11,1 17,3s12,5 17,9l12,-23a87,87 0 0 0 -46,-15c-11,0 -20,2 -28,5c-8,4 -14,9 -18,15c-4,7 -6,15 -6,24c0,10 2,19 6,24c5,6 10,10 16,12l24,6l3,0c1,0 0,0 0,0l13,3c4,1 7,3 9,5s3,5 3,9c0,5 -2,10 -7,13c-5,2 -12,4 -21,4a68,68 0 0 1 -41,-14l-12,22c4,4 10,7 15,10a86,86 0 0 0 38,8c12,0 22,-2 30,-5c8,-4 14,-9 18,-15c5,-7 7,-14 7,-24c0,-9 -2,-17 -6,-23zm71,65a85,85 0 0 1 -34,-16l13,-22a68,68 0 0 0 41,14c9,0 16,-1 20,-4c5,-3 8,-8 8,-13c0,-4 -1,-7 -4,-9l-8,-5a103,103 0 0 0 -14,-3l-3,0l-23,-6c-7,-2 -12,-6 -16,-12c-5,-5 -7,-13 -7,-24c0,-9 2,-17 6,-24c4,-6 10,-11 18,-14a72,72 0 0 1 60,2c5,1 10,4 14,7l-11,23c-5,-4 -11,-7 -17,-9l-17,-3c-9,0 -15,1 -19,4c-5,3 -7,7 -7,11l0,1c0,4 1,7 3,9l9,6l15,3l1,0l1,1l1,0l23,6c6,3 11,7 15,12c4,6 6,14 6,23l0,1c0,9 -2,16 -6,23c-4,6 -11,11 -19,15a96,96 0 0 1 -49,3zm177,-142l22,0l27,95l18,-95l28,0l-33,142l-25,0l-25,-99l-27,99l-25,0l-33,-142l28,0l18,95l27,-95zm525,23c-5,-7 -11,-13 -20,-17c-8,-4 -18,-6 -30,-6l-47,0l0,142l47,0c12,0 22,-2 31,-6c8,-4 15,-10 19,-18s6,-17 6,-27l0,-40c0,-11 -2,-20 -7,-28l1,0zm-22,69c0,8 -2,14 -7,18s-12,6 -20,6l-21,0l0,-90l21,0c8,0 15,2 20,6s7,10 7,18l0,42z" id="svg_3"/>
        <path d="m1665,222l-2,-5c-3,-6 -8,-11 -14,-15s-13,-5 -21,-5l-62,0l0,25l99,0z" fill="#799b9b" id="svg_4" stroke-width="0"/>
    </g>
</svg>
